<?xml version="1.0" encoding="UTF-8"?>
<svg width="46px" height="38px" viewBox="0 0 46 38" version="1.1" xmlns="http://www.w3.org/2000/svg" xmlns:xlink="http://www.w3.org/1999/xlink">
    <!-- Generator: Sketch 52.4 (67378) - http://www.bohemiancoding.com/sketch -->
    <title>github</title>
    <desc>Created with Sketch.</desc>
    <g id="Page-1" stroke="none" stroke-width="1" fill="none" fill-rule="evenodd">
        <g id="github" fill="#FFFFFF" fill-rule="nonzero">
            <path d="M30.632,22.3416 C28.9088,22.3416 27.512,24.2784 27.512,26.6592 C27.512,29.0448 28.9088,30.9816 30.632,30.9816 C32.3552,30.9816 33.752,29.0448 33.752,26.6592 C33.7496,24.2784 32.3552,22.3416 30.632,22.3416 Z M41.4944,11.1024 C41.852,10.2264 41.8664,5.2488 39.9704,0.48 C39.9704,0.48 35.624,0.9576 29.048,5.472 C27.668,5.088 25.3328,4.9008 23.0024,4.9008 C20.6672,4.9008 18.3344,5.088 16.9544,5.472 C10.376,0.9576 6.0296,0.48 6.0296,0.48 C4.136,5.2488 4.1552,10.2264 4.508,11.1024 C2.2808,13.5216 0.92,16.428 0.92,20.3928 C0.92,37.6392 15.2312,37.9152 18.8408,37.9152 C19.6616,37.9152 21.284,37.92 23.0024,37.92 C24.7184,37.92 26.3432,37.9152 27.1592,37.9152 C30.7736,37.9152 45.08,37.6392 45.08,20.3928 C45.08,16.428 43.7216,13.5216 41.4944,11.1024 Z M23.0672,35.796 L22.9328,35.796 C13.8824,35.796 6.8312,34.7184 6.8312,25.92 C6.8312,23.8104 7.5752,21.8568 9.344,20.2344 C12.2888,17.5296 17.276,18.96 22.9328,18.96 C22.9568,18.96 22.9808,18.96 23.0024,18.96 C23.0264,18.96 23.0456,18.96 23.0672,18.96 C28.724,18.96 33.7136,17.5296 36.6608,20.2344 C38.4248,21.8568 39.1688,23.8104 39.1688,25.92 C39.1688,34.7184 32.12,35.796 23.0672,35.796 Z M15.3704,22.3416 C13.6472,22.3416 12.2504,24.2784 12.2504,26.6592 C12.2504,29.0448 13.6472,30.9816 15.3704,30.9816 C17.096,30.9816 18.4928,29.0448 18.4928,26.6592 C18.4928,24.2784 17.096,22.3416 15.3704,22.3416 Z" id="Shape"></path>
        </g>
    </g>
</svg>