<?xml version="1.0" encoding="UTF-8"?>
<svg width="64px" height="27px" viewBox="0 0 64 27" version="1.1" xmlns="http://www.w3.org/2000/svg" xmlns:xlink="http://www.w3.org/1999/xlink">
    <!-- Generator: Sketch 52.4 (67378) - http://www.bohemiancoding.com/sketch -->
    <title>meetup</title>
    <desc>Created with Sketch.</desc>
    <g id="Page-1" stroke="none" stroke-width="1" fill="none" fill-rule="evenodd">
        <g id="meetup" fill="#FFFFFF">
            <path d="M12.8379281,6.45070843 C12.7035625,5.97378135 12.3107029,5.3759711 11.899288,5.22338086 C11.2274597,4.97368773 10.4449397,4.99746803 9.70656842,5.00341311 C9.4448753,5.0053948 9.03985881,5.23130762 8.94644268,5.4618444 C8.43137432,6.736072 7.91502628,8.0195475 7.54903982,9.34331739 C7.16257858,10.741731 6.94695369,12.1896869 6.63215415,13.7195527 C6.49075028,13.4744835 6.3787789,13.2987735 6.28344327,13.1131551 C5.58474183,11.7319162 4.89435827,10.3493561 4.19437717,8.9707594 C3.48991721,7.58423594 3.0951381,7.37814003 1.581285,7.63575992 C1.20506115,7.69851348 0.821159264,7.79099242 0.47500773,7.95150942 C0.302891718,8.03209821 0.103262737,8.2897181 0.0975042087,8.47335484 C-0.0112679923,11.668502 -0.128358068,14.861007 0.343841252,18.0449246 C0.670157855,20.2531894 1.06685647,20.5378924 3.11113401,19.7300229 C3.21286801,19.6890679 3.30628414,19.6296172 3.40801814,19.5853594 C3.86998008,19.384548 4.08048628,19.063514 3.99730753,18.5178883 C3.85078498,17.5746031 3.74777131,16.6240518 3.62940156,15.6761427 C3.67163077,15.6728399 3.71513965,15.6688765 3.75800869,15.6655737 C4.37417122,16.6993561 5.00952884,17.7212483 5.60137758,18.7702236 C6.08637363,19.6243326 6.65390859,20.1825091 7.71475746,19.8561905 C8.12617232,19.7293623 8.60157082,19.8152356 9.01234584,19.6857651 C9.29771291,19.5959284 9.62978804,19.3561437 9.75455615,19.0905971 C9.92603233,18.722663 9.96890137,18.2701768 9.99193548,17.8493977 C10.0911101,16.0704993 10.1595726,14.286977 10.2497896,12.5074181 C10.2645058,12.1797784 10.3278496,11.8541205 10.3783967,11.4604244 C11.3036003,14.5148715 12.2064095,17.4411692 13.0669896,20.3826599 C13.2167113,20.895918 13.3869078,21.1086195 13.9166924,20.9467814 C14.649945,20.724832 15.3947147,20.5478009 16,20.3879444 C15.3352099,17.3605804 14.6992124,14.4144658 14.0408207,11.4723146 C13.6665164,9.79250078 13.3024494,8.10542079 12.8379281,6.45070843 Z" id="Path"></path>
            <path d="M63.9332465,9.61005587 C63.7976877,8.31474528 63.4435878,7.06035337 61.956875,6.69543935 C61.4095721,6.55993819 60.9097782,6.1588011 60.3618419,6.07226818 C59.7815995,5.98238127 59.0803676,5.93274224 58.5843744,6.19368259 C56.7384941,7.16835182 55.608415,8.8634579 55.0908844,10.9254904 C54.6195958,12.8010411 54.3750832,14.7409884 54.0127484,16.6487374 C53.9728409,16.8674175 53.865154,17.1632393 53.7036236,17.2517846 C52.8364273,17.7300634 52.7794166,18.2673725 53.4850825,18.9730518 C53.7232606,19.2105142 53.8885917,19.6136637 53.9392679,19.9651618 C54.2521934,22.0855537 54.5144427,24.2133244 54.822934,26.3357286 C54.8571405,26.5772159 55.0630125,26.9803654 55.2030055,26.9877441 C56.0315612,27.0253088 56.8613839,26.9669494 57.7064094,26.9407883 C56.8930565,23.4144042 56.6928855,21.1571695 57.0330495,19.5915274 C57.5524804,19.3909588 58.1327228,19.3050967 58.550168,18.9817722 C59.6580762,18.119797 60.7070734,17.1699473 61.757971,16.2294887 C63.7153389,14.4840728 64.1980296,12.1517088 63.9332465,9.61005587 Z M57.1242666,16.5816576 C57.7140108,13.5603842 58.0687442,10.5310613 60.4505252,8.34358959 C61.5945402,11.4574331 60.140767,14.9294826 57.1242666,16.5816576 Z" id="Shape" fill-rule="nonzero"></path>
            <path d="M22.8627046,18.3403094 C21.6202579,18.8773808 20.6761861,18.6686611 19.9641092,17.6250627 C19.2299056,16.5509199 19.2915922,15.3565087 19.4605596,14.1557342 C20.8672802,14.2238226 22.1754364,14.2874567 23.4856043,14.3549088 C23.9858014,14.3809987 24.1286191,14.1493708 24.243946,13.6950236 C24.6978783,11.8967253 24.3257477,10.1149719 24.2204783,8.32812773 C24.1614738,7.30743754 23.9113753,6.45919564 22.5589656,6.2371128 C21.3386455,6.03730187 20.2484036,5.6733151 19.1259773,6.63164392 C18.0001985,7.5956998 16.9434818,8.51584819 16.5116762,9.97115895 C15.9725898,11.780275 16.0315943,13.6186628 16.000751,15.4608686 C15.9759423,17.0262663 16.5639757,18.1608614 18.0330533,19.0517381 C20.0613325,20.281148 23.9683682,20.3702357 26,18.9938311 C25.1102392,18.1144085 23.9495941,17.8713265 22.8627046,18.3403094 Z M19.8595103,11.1738425 C20.0526159,10.5031396 20.3784816,9.86807178 20.6453428,9.21645909 C20.7432366,9.23936735 20.8391189,9.26227561 20.9350012,9.28518387 C20.9591394,10.2867838 20.9826071,11.2890202 21.0060748,12.3567995 C19.5758865,12.2976199 19.5396792,12.2880748 19.8595103,11.1738425 Z" id="Shape" fill-rule="nonzero"></path>
            <path d="M34.0456866,17.703487 C33.8037194,17.6431274 33.4851631,17.6726511 33.2574292,17.7776243 C32.7362169,18.0210309 32.2821047,18.4186168 31.7432701,18.6023199 C30.8492791,18.9067421 29.9566437,18.8719698 29.2666643,18.1030412 C28.4309623,17.1720603 27.7504719,16.1879367 28.2242396,14.7885129 C29.7051876,14.9840255 31.1719021,15.4885528 32.5105164,14.6717303 C32.6440389,13.1686455 32.7640059,11.7469149 32.9015951,10.329777 C33.021562,9.13570699 33.2025291,7.94688568 33.2662404,6.75084747 C33.2804737,6.46610771 32.9978397,6.02784467 32.7321502,5.89465994 C32.0150597,5.54299978 31.2478134,5.26613301 30.4704005,5.06209138 C30.112533,4.96761552 29.513376,4.96367902 29.32292,5.17296931 C28.2771064,6.32242567 27.0584591,7.43054884 26.4030465,8.78207858 C25.4839776,10.6775006 24.9315875,12.7343189 25.006821,14.9210416 C25.0854434,17.1832137 26.4233798,19.0753553 28.6695407,19.6297449 C29.2842866,19.7799878 29.940377,19.7721148 30.5625785,19.9033313 C32.2244935,20.251055 33.6105523,19.6002212 35,18.913303 C34.9911889,18.2145752 34.631288,17.8452008 34.0456866,17.703487 Z M29.8427768,9.08978122 C29.9369881,9.11011977 30.0298439,9.13111441 30.1240552,9.15342121 C30.1098218,10.1690368 30.1484553,11.1885888 30.066444,12.1989557 C29.9701993,13.4061473 29.8814102,13.4291102 28.4113067,13.0000323 C28.889819,11.6891797 29.3676534,10.3888244 29.8427768,9.08978122 Z" id="Shape" fill-rule="nonzero"></path>
            <path d="M39.9763444,11.8785722 C39.9623549,12.0592337 39.7696803,12.2234115 39.6583996,12.3961608 C39.5795493,12.1812132 39.4282075,11.9629689 39.4383817,11.7526367 C39.4631814,11.204718 39.621518,10.6607555 39.6151591,10.1167929 C39.5846364,7.63566436 39.4402894,5.15387644 39.4930683,2.67604461 C39.5267704,1.06327807 39.5998977,0.983496893 38.1494333,0.307664635 C36.7352146,-0.351024561 36.0681663,0.0274415034 36.029377,1.64152674 C35.9924954,3.16396253 36.0497255,4.6929918 36.1616421,6.2114715 C36.3193427,8.31413401 36.5717909,10.4095437 36.7943523,12.632867 C36.1978878,12.6058337 35.6624687,12.5860532 35.1308649,12.5537451 C34.4956111,12.5148436 34.0549395,12.7469343 34.0047042,13.4603494 C33.9500177,14.1823361 34.3779715,14.3735471 34.9839743,14.3847561 C35.6300383,14.397943 36.2735587,14.454647 36.9730374,14.4955266 C37.0626978,15.6474085 37.1549018,16.7109377 37.2248497,17.7751263 C37.2941617,18.8314026 37.3412175,19.8883384 37.3997193,21 C38.1863149,20.8641742 38.8654451,20.7474695 39.575098,20.62549 C39.5331293,19.5810819 39.4822581,18.6250265 39.460002,17.6663338 C39.43711,16.7109377 39.4848017,15.7515856 39.4199409,14.7988269 C39.3805158,14.2568424 39.6634867,14.280579 40.0011441,14.2357433 C40.9594299,14.1104671 41.9139004,13.9654104 42.8683708,13.8276065 C42.9122472,13.7273856 42.9580313,13.6265052 43,13.5276029 C42.233117,12.8174846 41.495485,12.0664866 40.6815461,11.4196657 C40.3515194,11.1585636 40.0202208,11.3543901 39.9763444,11.8785722 Z" id="Path"></path>
            <path d="M51.8931275,10.8101952 C51.4906446,10.6455739 51.1080119,10.4239183 50.6870476,10.3150349 C50.4091427,10.2417979 49.9580606,10.2100402 49.8102098,10.3597549 C49.5624226,10.6112237 49.3974594,11.0156479 49.3755555,11.3669265 C49.3440688,11.8523651 49.5254599,12.3468773 49.5281979,12.8381489 C49.5370963,14.9432283 48.9922384,16.8460957 47.1057707,18.3704635 C47.0154174,18.0930701 46.9147967,17.9148383 46.9017913,17.7314216 C46.7909031,16.0696532 46.6300468,14.4078848 46.6129344,12.743524 C46.5971911,11.1148096 46.6314158,11.0674971 45.014639,10.394105 C44.7723279,10.2936471 44.5368616,10.1705051 44.2877055,10.0940275 C43.4560443,9.83996619 43.0474009,10.0959718 43.0186521,10.9203749 C42.9960638,11.5010864 42.9755289,12.0954084 43.0747807,12.665102 C43.4259265,14.6528725 43.7757034,16.6432355 44.2356839,18.6102663 C44.4088611,19.3627285 44.9927352,19.9745496 45.9044823,19.9965856 C46.6895979,20.0140847 47.4973017,19.9667722 48.25846,19.7976141 C48.6849003,19.7036373 49.0894367,19.3549511 49.4070423,19.034782 C49.8731833,18.5642501 50.2270671,17.9977971 50.6713042,17.5078217 C51.9122934,16.1344648 52.9253457,14.6995369 52.9958487,12.7811147 C53.0334959,11.8426434 52.8267785,11.1893428 51.8931275,10.8101952 Z" id="Path"></path>
        </g>
    </g>
</svg>