<?xml version="1.0" encoding="UTF-8"?>
<svg width="64px" height="64px" viewBox="0 0 64 64" version="1.1" xmlns="http://www.w3.org/2000/svg" xmlns:xlink="http://www.w3.org/1999/xlink">
    <!-- Generator: Sketch 52.4 (67378) - http://www.bohemiancoding.com/sketch -->
    <title>Pizza Icon</title>
    <desc>Created with Sketch.</desc>
    <g id="Page-1" stroke="none" stroke-width="1" fill="none" fill-rule="evenodd">
        <g id="Pizza-Icon" fill="#FFFFFF">
            <path d="M62.502,22.416 L3.119,0.148 C2.272,-0.17 1.316,0.037 0.676,0.677 C0.036,1.317 -0.171,2.272 0.147,3.12 L22.415,62.503 C22.754,63.407 23.617,64.001 24.576,64.001 C24.607,64.001 24.638,64 24.669,63.999 C34.983,63.586 44.693,59.329 52.01,52.011 C59.327,44.693 63.585,34.984 63.997,24.67 C64.037,23.675 63.434,22.766 62.501,22.416 L62.502,22.416 Z M15.804,31.721 C18.236,30.955 20,28.685 20,26 C20,22.686 17.314,20 14,20 C13.145,20 12.333,20.18 11.597,20.502 L6.254,6.254 L55.681,24.789 C53.547,40.84 40.84,53.547 24.789,55.68 L15.804,31.721 Z" id="Shape" fill-rule="nonzero"></path>
            <path d="M40,40 C40,44.418 36.418,48 32,48 C27.582,48 24,44.418 24,40 C24,35.582 27.582,32 32,32 C36.418,32 40,35.582 40,40 Z" id="Path"></path>
            <path d="M36,24 C36,26.209 34.209,28 32,28 C29.791,28 28,26.209 28,24 C28,21.791 29.791,20 32,20 C34.209,20 36,21.791 36,24 Z" id="Path"></path>
        </g>
    </g>
</svg>