<?xml version="1.0" encoding="UTF-8"?>
<svg width="48px" height="48px" viewBox="0 0 48 48" version="1.1" xmlns="http://www.w3.org/2000/svg" xmlns:xlink="http://www.w3.org/1999/xlink">
    <!-- Generator: Sketch 52.4 (67378) - http://www.bohemiancoding.com/sketch -->
    <title>slack</title>
    <desc>Created with Sketch.</desc>
    <g id="Page-1" stroke="none" stroke-width="1" fill="none" fill-rule="evenodd">
        <g id="slack" fill="#FFFFFF" fill-rule="nonzero">
            <path d="M43.8173077,22.3846154 C45.0096144,22.3846154 46.0048067,22.7740385 46.8028846,23.5528846 C47.6009625,24.3317308 48,25.3076913 48,26.4807692 C48,28.3461548 47.1057692,29.5961538 45.3173077,30.2307692 L40.3557692,31.9326923 L41.9711538,36.75 C42.1057693,37.1538462 42.1730769,37.6057702 42.1730769,38.1057692 C42.1730769,39.2403837 41.7692308,40.2211529 40.9615385,41.0480769 C40.1538462,41.875001 39.1826913,42.2884615 38.0480769,42.2884615 C37.1442317,42.2884615 36.3221163,42.0288462 35.5817308,41.5096154 C34.8413452,40.9903846 34.3269231,40.2980769 34.0384615,39.4326923 L32.4519231,34.6730769 L23.5096154,37.7307692 L25.0961538,42.4615385 C25.2499999,42.9230769 25.3269231,43.375001 25.3269231,43.8173077 C25.3269231,44.9519221 24.9230769,45.9326913 24.1153846,46.7596154 C23.3076923,47.5865394 22.3269231,48 21.1730769,48 C20.2692317,48 19.4519221,47.7403846 18.7211538,47.2211538 C17.9903856,46.7019231 17.4807692,46.0096154 17.1923077,45.1442308 L15.6057692,40.4423077 L11.1923077,41.9711538 C10.6346163,42.1442308 10.1538462,42.2307692 9.75,42.2307692 C8.57692212,42.2307692 7.60096154,41.8461548 6.82211538,41.0769231 C6.04326923,40.3076913 5.65384615,39.3365394 5.65384615,38.1634615 C5.65384615,37.2596163 5.91826933,36.4423067 6.44711538,35.7115385 C6.97596058,34.9807702 7.6634625,34.4711538 8.50961538,34.1826923 L13.0096154,32.6538462 L9.98076923,23.625 L5.48076923,25.1826923 C4.98077019,25.3365384 4.51923173,25.4134615 4.09615385,25.4134615 C2.94230769,25.4134615 1.97115288,25.0240385 1.18269231,24.2451923 C0.394231731,23.4663462 0,22.5 0,21.3461538 C0,20.4423087 0.264423173,19.624999 0.793269231,18.8942308 C1.32211442,18.1634625 2.00961635,17.6538462 2.85576923,17.3653846 L7.38461538,15.8365385 L5.85576923,11.25 C5.70192317,10.7884615 5.625,10.3365375 5.625,9.89423077 C5.625,8.74038462 6.02884615,7.75480673 6.83653846,6.9375 C7.64423077,6.12019327 8.625,5.71153846 9.77884615,5.71153846 C10.6826913,5.71153846 11.500001,5.97115385 12.2307692,6.49038462 C12.9615375,7.00961538 13.4711538,7.70192308 13.7596154,8.56730769 L15.3173077,13.1826923 L24.2596154,10.1538462 L22.7019231,5.53846154 C22.548077,5.07692308 22.4711538,4.62499904 22.4711538,4.18269231 C22.4711538,3.04807788 22.8798087,2.06730865 23.6971154,1.24038462 C24.5144221,0.413460577 25.4903856,0 26.625,0 C27.5288452,0 28.3509606,0.264423173 29.0913462,0.793269231 C29.8317317,1.32211442 30.3461538,2.00961635 30.6346154,2.85576923 L32.1634615,7.5 L36.8365385,5.91346154 C37.2403846,5.79807692 37.6538452,5.74038462 38.0769231,5.74038462 C39.2307692,5.74038462 40.2163471,6.12019327 41.0336538,6.87980769 C41.8509606,7.63942212 42.2596154,8.58653942 42.2596154,9.72115385 C42.2596154,10.5865385 41.9711538,11.3701933 41.3942308,12.0721154 C40.8173077,12.7740375 40.1057683,13.2692308 39.2596154,13.5576923 L34.7307692,15.1153846 L37.7596154,24.2307692 L42.4903846,22.6153846 C42.9519231,22.4615386 43.3942298,22.3846154 43.8173077,22.3846154 Z M20.9134615,29.9423077 L29.8557692,26.9134615 L26.8269231,17.8269231 L17.8846154,20.9134615 L20.9134615,29.9423077 Z" id="Shape"></path>
        </g>
    </g>
</svg>