<?xml version="1.0" encoding="UTF-8"?>
<svg width="46px" height="48px" viewBox="0 0 46 48" version="1.1" xmlns="http://www.w3.org/2000/svg" xmlns:xlink="http://www.w3.org/1999/xlink">
    <!-- Generator: Sketch 52.4 (67378) - http://www.bohemiancoding.com/sketch -->
    <title>twitch</title>
    <desc>Created with Sketch.</desc>
    <g id="Page-1" stroke="none" stroke-width="1" fill="none" fill-rule="evenodd">
        <g id="twitch" fill="#FFFFFF" fill-rule="nonzero">
            <path d="M23,12.5192308 L23,25.0384615 L18.8103015,25.0384615 L18.8103015,12.5192308 L23,12.5192308 Z M34.5,12.5192308 L34.5,25.0384615 L30.3103015,25.0384615 L30.3103015,12.5192308 L34.5,12.5192308 Z M34.5,34.4423077 L41.8103015,27.1153846 L41.8103015,4.18269231 L7.31030151,4.18269231 L7.31030151,34.4423077 L16.7298995,34.4423077 L16.7298995,40.7019231 L23,34.4423077 L34.5,34.4423077 Z M46,0 L46,29.2211538 L33.459799,41.7403846 L24.040201,41.7403846 L17.7701005,48 L11.5,48 L11.5,41.7403846 L0,41.7403846 L0,8.33653846 L3.14949749,0 L46,0 Z" id="Shape"></path>
        </g>
    </g>
</svg>