<?xml version="1.0" encoding="UTF-8"?>
<svg width="44px" height="37px" viewBox="0 0 44 37" version="1.1" xmlns="http://www.w3.org/2000/svg" xmlns:xlink="http://www.w3.org/1999/xlink">
    <!-- Generator: Sketch 52.4 (67378) - http://www.bohemiancoding.com/sketch -->
    <title>twitter</title>
    <desc>Created with Sketch.</desc>
    <g id="Page-1" stroke="none" stroke-width="1" fill="none" fill-rule="evenodd">
        <g id="twitter" transform="translate(-1.000000, 0.000000)" fill="#FFFFFF">
            <path d="M40.5584,9.1904 C40.5776,9.5792 40.5848,9.9728 40.5848,10.3616 C40.5848,22.3376 31.472,36.1424 14.8088,36.1424 C9.6896,36.1424 4.9304,34.6424 0.92,32.0696 C1.6304,32.1536 2.3504,32.1968 3.08,32.1968 C7.328,32.1968 11.2328,30.7472 14.3312,28.3208 C10.3688,28.2464 7.0208,25.6304 5.8688,22.0304 C6.4208,22.1336 6.9896,22.1888 7.5728,22.1888 C8.4008,22.1888 9.2024,22.0808 9.9608,21.8744 C5.816,21.0392 2.6936,17.3792 2.6936,12.9872 C2.6936,12.9488 2.6936,12.9128 2.6936,12.8744 C3.9152,13.5536 5.3144,13.9616 6.7976,14.0096 C4.3664,12.3824 2.7656,9.6128 2.7656,6.4664 C2.7656,4.808 3.212,3.2504 3.9944,1.9112 C8.4608,7.3952 15.14,11 22.6688,11.3792 C22.5152,10.7144 22.436,10.0256 22.436,9.3128 C22.436,4.3112 26.4896,0.2576 31.4936,0.2576 C34.1,0.2576 36.4544,1.3544 38.108,3.116 C40.1696,2.708 42.1088,1.9544 43.8608,0.9176 C43.184,3.032 41.7464,4.808 39.8768,5.9288 C41.7104,5.708 43.4528,5.2256 45.08,4.5032 C43.8656,6.3224 42.3296,7.916 40.5584,9.1904 Z" id="Path"></path>
        </g>
    </g>
</svg>