<?xml version="1.0" encoding="UTF-8"?>
<svg width="48px" height="35px" viewBox="0 0 48 35" version="1.1" xmlns="http://www.w3.org/2000/svg" xmlns:xlink="http://www.w3.org/1999/xlink">
    <!-- Generator: Sketch 52.4 (67378) - http://www.bohemiancoding.com/sketch -->
    <title>youtube play</title>
    <desc>Created with Sketch.</desc>
    <g id="Page-1" stroke="none" stroke-width="1" fill="none" fill-rule="evenodd">
        <g id="youtube-play" fill="#FFFFFF" fill-rule="nonzero">
            <path d="M34.2857143,17.1428571 C34.2857143,16.482142 34.0178571,15.9999991 33.4821429,15.6964286 L19.7678571,7.125 C19.2142848,6.76785804 18.6339295,6.75 18.0267857,7.07142857 C17.4375,7.39285714 17.1428571,7.89285804 17.1428571,8.57142857 L17.1428571,25.7142857 C17.1428571,26.3928562 17.4375,26.8928571 18.0267857,27.2142857 C18.3125009,27.3571428 18.5892857,27.4285714 18.8571429,27.4285714 C19.2142848,27.4285714 19.517858,27.3392858 19.7678571,27.1607143 L33.4821429,18.5892857 C34.0178571,18.2857152 34.2857143,17.8035723 34.2857143,17.1428571 Z M48,17.1428571 C48,18.8571429 47.9910714,20.1964286 47.9732143,21.1607143 C47.9553571,22.125 47.8794643,23.34375 47.7455357,24.8169643 C47.6116071,26.2901786 47.4107143,27.6071518 47.1428571,28.7678571 C46.857142,30.0714295 46.2410705,31.1696437 45.2946429,32.0625 C44.3482152,32.9553562 43.2410705,33.4732152 41.9732143,33.6160714 C38.0089286,34.0625009 32.0178482,34.2857143 24,34.2857143 C15.9821518,34.2857143 9.99107143,34.0625001 6.02678571,33.6160714 C4.75892946,33.4732144 3.64732232,32.9553562 2.69196429,32.0625 C1.73660625,31.1696437 1.11607232,30.0714295 0.830357143,28.7678571 C0.580357232,27.6071437 0.388392857,26.2901786 0.254464286,24.8169643 C0.120535714,23.34375 0.0446429464,22.125 0.0267857143,21.1607143 C0.0089285625,20.1964286 0,18.8571429 0,17.1428571 C0,15.4285714 0.0089285625,14.0892857 0.0267857143,13.125 C0.0446428661,12.1607143 0.120535714,10.9419643 0.254464286,9.46875 C0.388392857,7.99553571 0.589285714,6.6785625 0.857142857,5.51785714 C1.14285804,4.21428482 1.75892946,3.11607054 2.70535714,2.22321429 C3.65178482,1.33035804 4.75892946,0.812499107 6.02678571,0.669642857 C9.99107143,0.223213393 15.9821518,0 24,0 C32.0178482,0 38.0089286,0.223214196 41.9732143,0.669642857 C43.2410705,0.812499911 44.3526777,1.33035804 45.3080357,2.22321429 C46.2633937,3.11607054 46.8839277,4.21428482 47.1696429,5.51785714 C47.4196428,6.67857054 47.6116071,7.99553571 47.7455357,9.46875 C47.8794643,10.9419643 47.9553571,12.1607143 47.9732143,13.125 C47.9910714,14.0892857 48,15.4285714 48,17.1428571 Z" id="Shape"></path>
        </g>
    </g>
</svg>